<?xml version="1.0" encoding="UTF-8"?>
<svg width="214px" height="10px" viewBox="0 0 214 10" version="1.1" xmlns="http://www.w3.org/2000/svg" xmlns:xlink="http://www.w3.org/1999/xlink">
    <!-- Generator: Sketch 52.2 (67145) - http://www.bohemiancoding.com/sketch -->
    <title>Group</title>
    <desc>Created with Sketch.</desc>
    <defs>
        <polygon id="path-1" points="0.00014294895 0.37045523 213.488576 0.37045523 213.488576 9.9999205 0.00014294895 9.9999205"></polygon>
    </defs>
    <g id="Welcome" stroke="none" stroke-width="1" fill="none" fill-rule="evenodd" opacity="0.847726004">
        <g id="100_Desktop_Hp_Intro" transform="translate(-1062.000000, -227.000000)">
            <g id="Group-2" transform="translate(541.000000, 181.000000)">
                <g id="Group-10-Copy" transform="translate(628.000000, 51.000000) scale(-1, 1) translate(-628.000000, -51.000000) translate(521.000000, 46.000000)">
                    <g id="Group-3">
                        <g id="Group">
                            <mask id="mask-2" fill="white">
                                <use xlink:href="#path-1"></use>
                            </mask>
                            <g id="Clip-2"></g>
                            <path d="M212.637745,0.767363636 C212.474525,0.732363636 212.297703,0.706 212.120881,0.694181818 C210.526762,0.586909091 208.927203,0.483727273 207.329457,0.379636364 C204.09316,0.379181818 200.854143,0.356 197.617847,0.385090909 C194.305381,0.414636364 190.994728,0.506909091 187.684982,0.551454545 C184.271864,0.597363636 180.859652,0.609636364 177.446533,0.656454545 C176.373813,0.671454545 175.292931,0.722363636 174.233813,0.810090909 C172.884525,0.921909091 171.553372,0.946454545 170.217686,0.797818182 C169.418813,0.708727273 168.612686,0.651 167.811092,0.747818182 C166.127203,0.950090909 164.411575,0.956909091 162.711364,0.910090909 C159.834152,0.831454545 156.984143,1.06054545 154.106931,1.03827273 C152.340525,1.02509091 150.538753,1.181 148.738796,1.19463636 C144.700906,1.22645455 140.64216,1.03872727 136.634194,1.43872727 C136.373042,1.46418182 136.095567,1.45781818 135.82444,1.45509091 C133.489482,1.43781818 131.146364,1.53281818 128.819567,1.37236364 C127.999838,1.31554545 127.199152,1.35190909 126.416601,1.46281818 C124.753567,1.70009091 123.056075,1.74781818 121.340448,1.73554545 C120.623186,1.73054545 119.882347,1.71736364 119.189567,1.79372727 C117.23727,2.011 115.263211,1.996 113.283711,2.00463636 C111.757601,2.011 110.207914,1.97463636 108.710821,2.09236364 C106.919025,2.23327273 105.134482,2.29872727 103.337245,2.26736364 C99.6430246,2.20327273 96.0104653,2.64872727 92.3162449,2.59327273 C91.9653212,2.58781818 91.6125839,2.66145455 91.2534992,2.68009091 C88.7553212,2.81645455 86.2625839,2.99327273 83.7562449,3.06736364 C81.6053636,3.13145455 79.4445076,3.06736364 77.3126686,3.29872727 C76.619889,3.37372727 75.87905,3.34145455 75.1617873,3.35281818 C71.5727534,3.40872727 68.0118297,3.726 64.4091941,3.66509091 C64.232372,3.66190909 64.0510161,3.67918182 63.8769144,3.701 C62.2873297,3.89554545 60.6696347,3.89645455 59.0492195,3.90281818 C58.2421856,3.90645455 57.4197364,3.916 56.6344653,3.99781818 C55.1219568,4.15736364 53.6012873,4.16236364 52.0724568,4.16827273 C50.3649907,4.17509091 48.6248805,4.10281818 46.9573127,4.23736364 C44.7166602,4.41690909 42.4850754,4.43145455 40.2389822,4.43918182 C39.4301347,4.44190909 38.597711,4.40827273 37.8178805,4.49281818 C35.3269568,4.76509091 32.8079229,4.69827273 30.2934229,4.70418182 C26.5266602,4.701 22.8034229,5.09054545 19.0266856,5.02645455 C18.4127958,5.01645455 17.7934653,5.14009091 17.1714144,5.18145455 C15.9300331,5.26418182 14.6732364,5.42372727 13.4418297,5.38736364 C11.4496347,5.32827273 9.52000763,5.59281818 7.54413475,5.55281818 C7.10071949,5.54372727 6.61649915,5.62736364 6.63191441,5.921 C6.6455161,6.12872727 7.01457542,6.21827273 7.37275339,6.25372727 C7.80982119,6.29736364 8.26049068,6.30736364 8.70390593,6.33190909 C8.87710085,6.24372727 9.05392288,6.15781818 9.23618559,6.07418182 C10.8593212,6.06963636 12.4806432,6.06554545 14.1037788,6.061 C18.1752195,5.92009091 22.2575415,5.93736364 26.3344229,5.81190909 C31.2582364,5.66145455 36.1893042,6.03327273 41.1357873,5.86690909 C46.61455,5.68281818 52.1041941,5.58690909 57.5802364,5.39327273 C61.3415585,5.11645455 65.1527534,5.08736364 68.9104483,4.78554545 C65.1473127,5.07872727 61.3678551,5.25827273 57.5802364,5.39327273 C57.3780246,5.40736364 57.1749059,5.41554545 56.9717873,5.43190909 C49.5189653,6.03872727 42.0452873,6.52918182 34.5045076,6.77963636 C32.4488381,6.84736364 30.4221856,7.06418182 28.6748212,7.68327273 C27.7762025,7.68372727 26.8775839,7.68372727 25.9789653,7.68463636 C25.2807449,7.82009091 24.3948212,7.57009091 23.8181093,7.95190909 C23.0990331,7.95327273 22.37905,7.95418182 21.6599737,7.95463636 C21.5248636,8.00963636 21.3806856,8.04009091 21.2319737,8.06145455 C21.3779653,8.03009091 21.5221432,8.00190909 21.6599737,7.95463636 C20.8792364,7.956 20.1021263,7.96009091 19.3848636,8.11827273 C19.2397788,8.14054545 19.0956008,8.17009091 18.9641178,8.22418182 C17.7036941,8.22509091 16.4414568,8.22509091 15.1819398,8.22554545 C15.0386686,8.27963636 14.8863297,8.30918182 14.7312703,8.32918182 C14.8836093,8.29690909 15.0359483,8.27327273 15.1819398,8.22554545 C14.683211,8.19236364 14.1799483,8.16963636 13.6875669,8.12372727 C12.9367534,8.056 12.3772703,8.19463636 11.9447364,8.49372727 C10.1792364,8.64054545 8.41645678,8.76327273 6.61921949,8.79781818 C5.01693983,8.82781818 3.41919407,8.98327273 1.8305161,9.11145455 C1.31365169,9.15281818 0.802227966,9.26236364 0.330702542,9.38236364 C-0.0329161017,9.47327273 -0.0592127119,9.66372727 0.0731771186,9.851 C0.79134661,10.0491818 1.5095161,10.0500909 2.22587203,9.85054545 C2.76631271,9.84963636 3.30584661,9.84918182 3.84628729,9.84918182 C5.17199915,9.30281818 6.79060085,9.92509091 8.16618559,9.57827273 L8.70390593,9.57827273 C9.63879576,9.57690909 10.5773127,9.58690909 11.4024822,9.30872727 C12.6619992,9.30872727 13.9215161,9.30827273 15.1819398,9.30781818 C15.4585076,9.136 15.9799059,9.20963636 16.2591941,9.03872727 C17.7009737,9.03781818 19.1400331,9.03781818 20.5790924,9.03736364 C21.0850754,8.95463636 21.5856178,8.81281818 22.0997619,8.80009091 C25.045889,8.72463636 27.9503042,8.38827273 30.9254483,8.48236364 C31.8059314,8.51009091 32.7018297,8.406 33.5904737,8.35418182 C35.8120839,8.22554545 38.0228127,8.02827273 40.2498636,7.97509091 C43.8207619,7.88918182 47.3898466,7.95781818 50.9661856,7.72827273 C54.7683127,7.48372727 58.6321008,7.47009091 62.466872,7.34781818 C64.3411856,7.28736364 66.211872,7.20872727 68.0825585,7.13918182 C68.512372,6.78054545 69.2713466,6.80418182 69.9541517,6.70963636 C72.7533805,6.321 75.66505,6.66781818 78.4479568,6.41054545 C84.6938551,5.83190909 91.0585415,5.83372727 97.3234822,5.69645455 C105.78555,5.51145455 114.232203,5.15781818 122.699711,5.05236364 C123.754296,5.03918182 124.594881,5.09463636 124.750847,4.43918182 C123.224736,4.43781818 121.698626,4.44736364 120.172516,4.43009091 C119.550465,4.42281818 118.928414,4.37145455 118.317245,4.31054545 C118.056092,4.28418182 117.874736,4.156 117.901033,4.00736364 C117.92733,3.85872727 118.154025,3.75281818 118.422431,3.74645455 C120.391957,3.69872727 122.359669,3.65645455 124.329194,3.63009091 C125.944169,3.60872727 127.596321,3.71918182 129.170491,3.58327273 C132.836601,3.26736364 136.512686,3.39781818 140.18333,3.35418182 C141.25877,3.34145455 142.360508,3.37872727 143.404211,3.27690909 C145.274897,3.09372727 147.151931,3.08509091 149.036219,3.086 C151.908897,3.08736364 154.781575,3.091 157.656974,3.08054545 C158.550152,3.07736364 159.466906,3.08190909 160.337414,2.99418182 C161.936974,2.83281818 163.544694,2.81281818 165.159669,2.81554545 C167.315991,2.81963636 169.471406,2.82418182 171.625008,2.81190909 C173.777703,2.79918182 175.946719,2.846 178.070397,2.71827273 C179.863101,2.61009091 181.639482,2.55463636 183.433999,2.541 C184.419669,2.53281818 185.420753,2.53372727 186.382847,2.44054545 C187.896262,2.29463636 189.411491,2.27736364 190.940321,2.27418182 C193.272558,2.26872727 195.641067,2.37327273 197.931592,2.21145455 C200.891321,2.00190909 203.834728,2.021 206.794457,2.00372727 C207.153542,2.16463636 207.508999,2.16463636 207.867177,2.00372727 L208.410338,2.00372727 C209.306236,2.00190909 210.202135,2.01372727 211.098033,1.99190909 C211.628499,1.97872727 212.165313,1.93645455 212.676736,1.86463636 C213.130126,1.801 213.441152,1.626 213.48377,1.37827273 C213.539084,1.066 213.170025,0.882363636 212.637745,0.767363636" id="Fill-1" fill="#1D67FB" mask="url(#mask-2)"></path>
                        </g>
                    </g>
                </g>
            </g>
        </g>
    </g>
</svg>